<svg id="Layer_1" data-name="Layer 1" xmlns="http://www.w3.org/2000/svg" viewBox="0 0 600 600"><defs><style>.cls-1{fill:#fff;}</style></defs><path class="cls-1" d="M64.26,212.15c0-27-.09-54,0-81,.07-15.27,6.3-21.14,21.7-22.3C163.26,103.05,232.58,78,289.79,24c10.89-10.3,19-10.36,30.29-.19Q407.7,102.37,525.16,109c13,.75,20.36,7,20.29,18.9-.38,60.88,2,122-2.51,182.6-9.32,125-108.82,237.93-230.73,266.75a32.83,32.83,0,0,1-14.66-.05C175.67,548,78,436.46,66.75,311.49c-3-32.86-.45-66.21-.45-99.33Zm37.11-66.93c0,46.38-.68,91.81.14,137.22,2.12,118.22,81.93,222.72,195.18,256.13a30.14,30.14,0,0,0,16.71-.06C395.69,512.32,454.11,459.53,488,380c14.37-33.76,20.71-69.24,20.65-105.91-.07-42.69,0-85.38,0-129-77-7.35-144.57-35.5-203.68-84.62C245.67,109.81,178,137.78,101.37,145.22Z"/><path class="cls-1" d="M286,324c30.49-30.49,59.62-59.64,88.77-88.75,3.81-3.81,7.44-7.94,11.75-11.11,7.86-5.78,16.14-5.28,23.18,1.36,7.45,7,8.12,15.43,2.51,24.05a39.24,39.24,0,0,1-5.4,6Q355.29,307.1,303.72,358.62c-12.93,12.89-21.48,12.89-34.38.08q-24.22-24-48.27-48.26c-10.36-10.48-11.19-21-2.68-29.27,8.13-7.87,18.51-7,28.45,2.85C259.67,296.79,272.19,309.87,286,324Z"/></svg>