<svg id="Layer_1" data-name="Layer 1" xmlns="http://www.w3.org/2000/svg" viewBox="0 0 600 600"><defs><style>.cls-1{fill:#fff;}</style></defs><path class="cls-1" d="M268.24,339.88l-56.07-18.75-19.77-6.61c-14.7-4.93-18.49-20.41-7.52-31.42q44.25-44.43,88.66-88.71,35.77-35.76,71.56-71.51c8.15-8.12,19.71-8.17,27.07-.3,5.44,5.81,6.35,13.69,2.36,21.69q-17.85,35.85-35.79,71.66l-18.88,37.8c5.24,1.8,10.28,3.56,15.33,5.25q30.26,10.11,60.51,20.19c14.71,4.93,18.48,20.43,7.51,31.42Q323.15,390.77,243,470.82c-7,7-16.89,8.08-24.28,2.77C211,468,209,458.68,213.59,449.41Q239.75,397,266,344.54C266.64,343.18,267.29,341.81,268.24,339.88Z"/><path class="cls-1" d="M101.64,150.84c9.64-.58,18-.92,26.3-1.62,11.33-1,20.69,6.27,21.38,16.8.71,10.84-7.27,19-18.69,19.66-21,1.22-42,2.63-63,4.11-9.15.65-19.33-7.71-19.41-16.92q-.32-35.73,0-71.48c.06-8.89,7.73-16.4,16.53-17,9.8-.61,18.26,5.75,19.39,15.11.55,4.51.1,9.15.1,13.73l1.59,1a43.15,43.15,0,0,1,3-4.15C131.82,63.83,184.1,33.78,246.34,23c80.76-14,154.11,4.8,218.72,55C518,119.1,551.52,173.1,566.19,238.62a266.74,266.74,0,0,1,6.21,56.76c.08,11.31-7.77,19.74-18.22,19.77s-18.25-8.31-18.38-19.64C534.56,189,466.23,97.05,365,65.66c-91.81-28.48-193.92,1.7-255.53,75.52C107.11,144,104.8,146.94,101.64,150.84Z"/><path class="cls-1" d="M502.44,480.08a283.92,283.92,0,0,1-52.9,46.5c-36.87,25-77.28,41.3-121.63,46.2-96.78,10.7-177.8-21.24-242.88-93C49.3,440.3,27.81,393.47,19.34,341c-2.28-14.1-2.86-28.52-3.55-42.82-.54-11.16,7.87-19.66,18.28-19.6s18.13,8.36,18.22,19.38c.47,55.54,17.69,105.36,52.24,148.76C143,495,192.84,525.73,254.06,535c92.6,14.05,168.79-16.94,229.1-88.07.86-1,1.58-2.15,3-4.11-9.74.62-18.55,1.15-27.35,1.74-7.62.51-15-3.52-18.19-10.23-3.34-7.11-2.41-13.84,2.55-19.9a17,17,0,0,1,12.3-6.3q32.52-2.16,65-4.09c10.2-.59,19.33,8.09,19.36,18.28q.12,34.49,0,69a17.89,17.89,0,0,1-16.84,17.94c-10.18.48-18.34-6.22-19.29-16.19-.41-4.22-.07-8.5-.07-12.75Z"/></svg>