<svg id="Layer_1" data-name="Layer 1" xmlns="http://www.w3.org/2000/svg" viewBox="0 0 600 600"><defs><style>.cls-1{fill:#fff;}</style></defs><path class="cls-1" d="M587.21,338.64c-11.83,7.47-23.16,14.74-34.59,21.83-31.18,19.35-62.8,37.95-95.1,55.38-2,1.07-2,1.08-1.73,4.2A1205.86,1205.86,0,0,0,583.1,343l3.57,5.07c-3.54,2.49-7,5-10.45,7.34a1240,1240,0,0,1-117.6,70.32c-3.48,1.84-3.48,1.85-3.15,7.89a1195.46,1195.46,0,0,0,127.62-77.22l3.63,5.19C580,366.16,573.54,370.63,567,375c-35,23.32-71.24,44.47-108.35,64.17-4,2.1-4.06,2.4-3.12,9A1308.28,1308.28,0,0,0,583.06,370l3.61,5.05c-1,.73-1.77,1.35-2.6,1.92a1323.36,1323.36,0,0,1-122.85,75.41l-2.5,1.36c-4.13,2.29-4.35,2.8-3.25,8.61,21.68-12.55,43.28-24.73,64.57-37.45s42.12-25.89,63.35-39c1,1.5,2,3.08,3.17,5-3.18,2.08-6.22,4.09-9.3,6.07-38.47,24.7-77.71,48.12-117.91,69.92-3.88,2.1-5.51,4.42-4.17,9.15,43.34-23.12,86.19-47.06,128-73.45.66,1,1.25,1.78,1.8,2.63s1,1.61,1.6,2.69c-6.07,3.78-12,7.5-17.94,11.15-37.85,23.18-76.77,44.45-115.83,65.49-44.51,24-89.72,46.51-136.3,66.18-22.41,9.47-45.32,17.77-67.72,27.25-5.75,2.42-9.47,1.51-14.3-1.65-39.42-25.85-79-51.44-118.55-77.1Q104,491.44,92,483.74c-.77-.5-1.52-1-2.67-1.84l12-5.83-12-7.87L103,461.42l-13.79-9,15-6.95c-5-3.28-9.71-6.34-14.84-9.69L101,430l-11.63-7.66,10.33-5.11-16.54-10.4c4.23-1.41,8-2.73,11.85-3.94,55-17.36,109.59-35.94,163.29-57C312.74,324.47,365.94,300.34,417.2,272c4.73-2.61,9.38-5.38,14.18-7.85a5.23,5.23,0,0,1,4.1-.19q41.25,20.1,82.38,40.41,33.28,16.38,66.55,32.79C585.16,337.56,585.89,338,587.21,338.64ZM157,438a12.13,12.13,0,0,0,1.11,1q26.28,16.47,52.53,33c1.45.91,2.3.46,3.5-.27,11.59-7,24.25-9.05,37.49-7.48,12.66,1.51,24,6.88,34.7,13.44a7.11,7.11,0,0,0,7.32.57c24.34-10.33,48.73-20.52,73.08-30.81,3.77-1.59,7.4-3.51,11.47-5.46-1.44-.89-2.38-1.51-3.36-2.08C353,427.07,331,414.47,309.28,401.52c-19.64-11.69-39.1-23.67-58.49-35.76a7.18,7.18,0,0,0-7.19-.81q-34.41,12.6-68.92,24.92c-6.74,2.42-13.53,4.66-20.68,7.11,6.12,5.62,10.77,11.77,11.53,20S163.5,432.24,157,438ZM329.3,329.84l23.19,13.86q49.29,29.51,98.58,59c1.27.76,2.28,1.17,3.84.27,19.64-11.3,39.35-22.48,59-33.72,2.51-1.44,4.94-3,7.14-4.36-10.11-15.11-9.91-30-.91-45-.16-.19-.25-.39-.41-.46q-26-12.82-52.06-25.55a3.79,3.79,0,0,0-3.06.35A64.14,64.14,0,0,1,433.78,303c-10.63.45-20.63-2.61-30.18-7.08a4.56,4.56,0,0,0-4.48.07q-24.28,12.11-48.69,24C343.64,323.33,336.73,326.4,329.3,329.84ZM102.35,453.32c1.15.8,1.89,1.35,2.67,1.85l39.15,25.36q47.73,31,95.43,62a5.42,5.42,0,0,0,5.48.52c30.52-11.3,60.74-23.34,90.5-36.51,18-8,35.85-16.34,53.74-24.58.86-.39,2.05-1.2,2.14-1.93a67.7,67.7,0,0,0,.1-7.47c-1,.42-1.56.61-2.06.83-21.78,9.54-43.4,19.47-65.38,28.51-26.71,11-53.73,21.21-80.6,31.8a4.08,4.08,0,0,1-4.16-.51q-32.3-21-64.67-42-31-20.13-62.06-40.22a4.53,4.53,0,0,0-3.31-.69A64.45,64.45,0,0,0,102.35,453.32ZM102.11,469c1.53,1,2.6,1.74,3.69,2.44l25.77,16.69q54,35.06,108.06,70.17a5.11,5.11,0,0,0,5.24.55c19.09-7.59,38.45-14.54,57.26-22.75,29.34-12.79,58.31-26.41,87.41-39.74.82-.37,1.84-1.26,1.95-2a45.63,45.63,0,0,0,.09-6.27l-4,1.8c-15.07,6.89-30.06,14-45.25,20.62q-24.84,10.84-50,20.95c-16.15,6.52-32.45,12.66-48.73,18.85a5,5,0,0,1-3.86-.23q-36.48-23.49-72.82-47.17-28-18.19-56.1-36.33a3.06,3.06,0,0,0-2.24-.63C106.51,466.67,104.53,467.76,102.11,469Zm289.16,33.66c-2.26,1.08-4.3,2.05-6.33,3Q315.79,539.33,243.65,566a4.34,4.34,0,0,1-4.38-.48Q175.36,524,111.43,482.42c-3.5-2.28-5.91-1.9-8.89.5,1,.67,1.86,1.33,2.79,1.94l34.61,22.44q49.77,32.3,99.51,64.62a5.3,5.3,0,0,0,5.48.67c8.43-3.35,17-6.43,25.42-9.73q59.07-23.11,116-51.14c5.67-2.78,5.66-2.79,5.15-8.58A2.53,2.53,0,0,0,391.27,502.61Zm0-43.37c-.89.37-1.74.71-2.58,1.08-14.63,6.52-29.09,13.45-43.91,19.48-33.31,13.57-66.82,26.66-100.21,40.06-2.45,1-4.15.59-6.22-.76q-63.91-41.58-127.89-83.05c-3.48-2.26-4.32-2.17-7.78.78.4.29.77.57,1.16.82q67.55,43.83,135.05,87.71a6.56,6.56,0,0,0,6.79.78c31.47-12.6,63.06-24.9,94.43-37.74,15.95-6.53,31.53-14,47.25-21C392.21,465.18,392.28,464.93,391.24,459.24Zm-.06-9.48c-8.68,4.06-17.28,8.22-26,12.15a1159,1159,0,0,1-117.14,45.81,5,5,0,0,1-4.73-.58Q176.11,465,108.82,422.91c-3-1.86-3.28-1.84-6.18.5.64.45,1.23.89,1.85,1.29q68,44.13,136.08,88.18a4.56,4.56,0,0,0,3.57.3c27.09-10.57,54.28-20.89,81.16-32,21.62-8.92,42.84-18.8,64.25-28.23C390.93,452.37,392.24,451.82,391.18,449.76Z"/><path class="cls-1" d="M60.43,199.88c-7.54-2.06-14.89-3.86-22.11-6.11-6.36-2-12.33-4.91-17.23-9.62A15.52,15.52,0,0,1,16,172.27q.19-17.22,0-34.46A15.48,15.48,0,0,1,21.13,126c4.54-4.36,10.09-7,15.89-9.16,1.44-.54,2.06-1.22,2-2.83-.13-3.7-.13-7.41,0-11.11.06-1.69-.68-2.43-2.07-3.2a52,52,0,0,1-6.61-4.4A16.75,16.75,0,0,1,23.6,80.94c.21-10.62.26-21.24,0-31.85-.18-7,2.91-12,8.32-15.85,8.26-5.91,17.8-8.71,27.53-10.87,22.2-4.93,44.69-5.9,67.32-4.73,16.43.84,32.63,3,48.32,8.13,6.41,2.08,12.49,4.84,17.63,9.46,3.67,3.31,5.84,7.08,5.8,12.11-.07,8,0,15.94-.06,23.92,0,1.73.42,2.75,2.1,3.5a26.87,26.87,0,0,1,5.08,3.12c5.33,3.9,8.55,8.71,8.3,15.83-.39,10.9-.24,21.83,0,32.74.09,5.27-1.6,9.76-5.75,12.67-4.76,3.34-10.1,5.85-15.16,8.76a16.13,16.13,0,0,0-2,1.59,13.12,13.12,0,0,0,2.38,1c9.46,2,18.93,4,27.62,8.47a49.76,49.76,0,0,1,7.23,4.48c4.91,3.67,7.51,8.4,7.32,14.85-.31,10.53-.41,21.08,0,31.6.32,7.69-3.17,12.79-9.09,16.82-6.44,4.39-13.66,7-21.13,8.89-2,.5-2.55,1.26-2.5,3.25.14,5.78.12,11.58,0,17.36A3.71,3.71,0,0,0,205,260a77,77,0,0,1,10.13,7.2c3.13,2.72,4.42,6.46,4.39,10.7-.09,11.58-.12,23.16,0,34.74a15.31,15.31,0,0,1-4.95,11.66c-6.26,6.06-14.15,9.06-22.31,11.4-22,6.33-44.56,7.81-67.3,7.28-19.66-.46-39.12-2.47-57.88-8.85-6.05-2.06-11.82-4.7-16.62-9.07a16.44,16.44,0,0,1-5.85-13c.16-9,0-18,.13-27a3.59,3.59,0,0,0-2.12-3.52,69.92,69.92,0,0,1-10.06-7.15A13.87,13.87,0,0,1,28,263.41c.06-11.39.16-22.78,0-34.17-.1-5.74,2.24-10.05,6.47-13.55,6.58-5.44,14.41-8.29,22.49-10.55C60.83,204.05,60.84,204.08,60.43,199.88ZM112.31,63.41c6-.33,14.58-.6,23.07-1.31,12.68-1.07,25.26-2.87,37.28-7.25a64.16,64.16,0,0,0,11-5.19c3.13-1.89,3.11-4.18,0-6.23A43.3,43.3,0,0,0,174.84,39c-13.51-5-27.62-7.19-41.93-8.27-24.9-1.87-49.69-1.26-74,4.84A105.92,105.92,0,0,0,39.59,42.8c-4.34,2.05-4.35,4.5-.18,7a63.26,63.26,0,0,0,13.35,6.07C71.32,61.72,90.56,62.64,112.31,63.41ZM61,216.56c-5.65,2.33-11.3,4.64-16.93,7a8,8,0,0,0-1.8,1.36c-1.95,1.57-2.34,3.31-.09,4.83,2.65,1.78,5.29,3.78,8.23,4.89a118.91,118.91,0,0,0,15.48,4.67c15.76,3.63,31.83,4.87,48,5,10.38.07,20.76-.79,31.15-1.23l0-.72c-6.77-.41-13.55-.73-20.32-1.25C110.72,240,96.92,238,83.69,233.45,74.71,230.33,66,226.52,61,216.56Zm129.46-53.77c2.61,13.35-2,22.78-14.47,28.09a129.14,129.14,0,0,0,36.84-7.53,37.79,37.79,0,0,0,8.18-4.46c2.55-1.76,2.46-3.52.18-5.55a9.61,9.61,0,0,0-1.83-1.35C210.57,167.09,200.91,165,190.45,162.79ZM114.72,306.23c0,7.43,0,14.78,0,22.14,0,.53.73,1.47,1.17,1.5,4.59.31,9.18.47,13.9.68V306.23Zm16.21-77h15V205.34h-15Zm-17.62,27.64H98.22v23.78h15.09ZM124.47,120.5H109.28v24.16c4.62,0,9,.06,13.45-.07.59,0,1.66-1,1.67-1.54C124.51,135.69,124.47,128.32,124.47,120.5Zm-23.2,45.39h-15v23.85h15ZM94.12,75.77V99.61h15V75.77Zm56.54,254.1V306.24H136.58v24.29Zm1.71-100.78c4.23,0,8.08-.08,11.92,0,2.19.07,2.69-.88,2.65-2.89-.11-6,0-11.93,0-17.89v-3c-4.62,0-8.78-.08-12.92.09-.57,0-1.52,1.26-1.55,2-.16,3.39-.06,6.81-.06,10.21Zm-7.21-84.83V120.47h-14.1v23.79ZM129.72,99.48V75.73H115.65V99.48ZM120,257v23.5H134V256.37Zm-12-67.51h13.94V165.87H107.91ZM140.47,280l11.37-1.4v-24c-3.42.39-6.61.68-9.76,1.2a2.44,2.44,0,0,0-1.54,1.76C140.43,264.83,140.47,272.11,140.47,280Zm-11.81-91c3.32-.39,6.3-.82,9.3-1.07,1.73-.15,2.2-1,2.16-2.58-.09-3.59,0-7.19,0-10.79s0-7.13,0-10.94L128.66,165ZM68.14,164c0,7.77,0,15.23,0,22.68a1.75,1.75,0,0,0,1.11,1.29c3.41.48,6.83.82,10.49,1.23,0-7.88,0-15.25-.06-22.62A2,2,0,0,0,78.58,165C75.23,164.55,71.86,164.29,68.14,164Zm66.11,129.57c.75,0,1.3.1,1.86.09a215.21,215.21,0,0,0,43.47-4.45c8.07-1.7,16.09-3.71,23.31-7.87,1.63-1,3.75-3,3.67-4.45s-2.52-2.92-3.93-4.37c-.06-.06-.18-.07-.25-.12-1.13-.85-1.76-.43-2.82.49-3.33,2.89-6.67,5.92-10.47,8.09-8.23,4.71-17.41,6.92-26.66,8.52S143.74,292.17,134.25,293.52Zm23.26,11.69v24.14l11-1.37V304Zm27.18-102.15-11.34,1.32v24c3.39-.37,6.57-.62,9.71-1.13a2.5,2.5,0,0,0,1.56-1.83C184.73,218.07,184.69,210.71,184.69,203.06Zm-76.46,126.4V305.34L97,304.2v24ZM91.6,280.05v-24l-11.13-1.27v24Zm60.16-136.56c3.18-.36,6-.77,8.82-1,2.09-.13,2.7-1,2.58-3.07-.18-2.83,0-5.68,0-8.52v-12.7l-11.36,1.25Zm-27.51,85V204.47l-11.33-1.2c0,7.79,0,15.25.06,22.7,0,.47.83,1.27,1.37,1.35C117.52,227.8,120.71,228.11,124.25,228.52Zm-21.61-84.88v-24l-11.17-1.17v23.91Zm33.8-68.82v24l11.15-1.41V73.56Zm-60.39-1V97.66l11.34,1.26c0-7.84,0-15.29-.06-22.75A2,2,0,0,0,86,74.82C82.74,74.39,79.46,74.12,76.05,73.79ZM90.64,327.28c0-7.85,0-15.21,0-22.57a2.05,2.05,0,0,0-1-1.62c-2.89-.66-5.82-1.13-9-1.72,0,7.65,0,14.82.07,22a2.85,2.85,0,0,0,1.69,2C84.86,326.11,87.52,326.58,90.64,327.28ZM74.88,115.52c0,7.73,0,14.91.06,22.09a2.56,2.56,0,0,0,1.47,1.91c2.69.75,5.47,1.23,8.57,1.88,0-7.85,0-15.31,0-22.76a1.78,1.78,0,0,0-1.07-1.33C81,116.66,78.19,116.16,74.88,115.52Zm94.63,25.63c3.18-.72,6-1.27,8.67-2a2.08,2.08,0,0,0,1.25-1.49c.08-7.36,0-14.72,0-22.33l-10,1.89ZM59.57,70.92c0,7.66,0,14.83,0,22a2.35,2.35,0,0,0,1.24,1.8c2.77.77,5.6,1.32,8.77,2,0-7.82,0-15.27-.06-22.71a2,2,0,0,0-1.23-1.48C65.6,71.93,62.82,71.5,59.57,70.92ZM184.86,324.74V301.13c-3,.54-5.65,1-8.3,1.58a2.32,2.32,0,0,0-1.47,1.57C175,311.65,175,319,175,326.89ZM164.13,70.66c-3.08.57-5.75,1.13-8.44,1.52-1.77.25-1.68,1.4-1.68,2.67,0,6.25,0,12.5,0,18.75,0,.8.12,1.61.21,2.74,3.08-.66,5.85-1.16,8.56-1.9a2.32,2.32,0,0,0,1.28-1.78C164.17,85.48,164.13,78.3,164.13,70.66ZM191,225.87c1.4-.27,2.57-.51,3.74-.72,6.08-1.1,6.08-1.1,6.36-7.18,0-.29.07-.57.07-.85v-17c-3.31.62-6.08,1-8.8,1.71a2.29,2.29,0,0,0-1.31,1.7C191,210.88,191,218.24,191,225.87ZM51.89,161.13c0,7.65,0,15,.07,22.4,0,.55.92,1.41,1.55,1.57,2.63.68,5.32,1.15,8.34,1.77,0-7.84,0-15.4-.05-23a1.88,1.88,0,0,0-1.21-1.28C57.83,162.06,55,161.65,51.89,161.13Zm22,116.63c0-7.87,0-15.17,0-22.46a2.08,2.08,0,0,0-1.09-1.61C69.9,253.05,67,252.59,64,252v23.7Zm84.68-.3c2.56-.56,4.93-1.22,7.34-1.57,1.86-.28,2.52-1.08,2.46-3-.13-3.78,0-7.57,0-11.35v-9.92l-9.76,1.9ZM146.72,162.58v23.88l3.7-.68c5.88-1,5.88-1,5.88-7v-18ZM106.49,203H96.54c0,6.72,0,13.25.06,19.78a2.1,2.1,0,0,0,1.23,1.55c2.8.69,5.64,1.2,8.66,1.81ZM68.77,151.11c-5.2-2-10-3.6-14.46-5.76C47.38,142,41,138,38.9,129c-3.06,1.78-6.06,3.33-8.82,5.2-1.77,1.21-2.08,3-.11,4.45a40.54,40.54,0,0,0,7.4,4.67C47.19,147.46,57.56,149.57,68.77,151.11ZM39.39,158c0,7.39,0,14.59,0,21.78a2,2,0,0,0,.93,1.47c1.6.67,3.28,1.15,5.25,1.8,0-6.48,0-12.44,0-18.4C45.61,159.05,45.61,159.05,39.39,158ZM68,298.06c0,7.56,0,14.57.06,21.57a2.75,2.75,0,0,0,1.31,2,33.12,33.12,0,0,0,4.72,1.53V299.83ZM57.58,273.85c0-7.7,0-15,0-22.21a1.93,1.93,0,0,0-1-1.42c-1.56-.57-3.19-.94-5.12-1.47,0,7.6,0,14.78,0,21.95a2,2,0,0,0,1,1.47C54,272.8,55.58,273.22,57.58,273.85ZM62.5,112.73c0,7.07,0,14.13.06,21.2A2.84,2.84,0,0,0,64,136a32.25,32.25,0,0,0,4.63,1.52v-18.3c0-5.47,0-5.47-5.38-6.7C63.15,112.46,63.05,112.53,62.5,112.73ZM47.2,67.67c0,7.56,0,14.71,0,21.86a2.21,2.21,0,0,0,1.12,1.64,49.34,49.34,0,0,0,4.76,1.56V69.3ZM89.91,222V202.39H84v12.82C84,220.83,84,220.83,89.91,222ZM61.67,318.11V299c0-3.93-.28-4.24-4.49-5.07,0,6,.11,12,0,17.91C57.05,315,58.57,316.7,61.67,318.11ZM45.1,268.88V249.62c0-3.89-.23-4.16-4.53-5.14,0,6.09.14,12.14,0,18.18C40.41,265.89,42.16,267.39,45.1,268.88ZM28.59,153.5c0,6.19.1,12.23-.05,18.27-.08,3.17,1.59,4.75,4.53,6.14,0-6.44-.23-12.55.09-18.63C33.34,155.9,32.2,154.17,28.59,153.5Zm12.14-66c0-6.8-.2-13.21.08-19.59.14-3.42-1.79-4-4.43-4.58,0,6.15.11,12.09,0,18C36.26,84.38,37.47,86.21,40.73,87.53Zm11,20.57c0,6.19.07,12.32,0,18.44,0,3,1.62,4.53,4.37,5.75,0-6.41-.18-12.55.07-18.66C56.24,110.5,55.44,108.57,51.7,108.1Zm21.65,93c0,4.14-.34,7.94.16,11.62.22,1.64,2.15,3,3.3,4.55l.73-.55v-15ZM198,87.52c-2.57,6-7.63,9.42-12.78,13a78.32,78.32,0,0,0,13.39-5.79C202.44,92.45,202.1,90,198,87.52Z"/><path class="cls-1" d="M420.92,151.39a69.5,69.5,0,0,0,.09,7.08c.08.71,1.14,1.51,1.93,1.93,4.26,2.25,8.77,4.08,12.81,6.67a15.61,15.61,0,0,1,7.66,14.58c-.34,9.76-.39,19.55,0,29.31.29,7.15-2.93,11.9-8.44,15.65-6.85,4.68-14.57,7.24-22.55,9A225.86,225.86,0,0,1,357.08,241c-17.38-.39-34.66-1.91-51.46-6.82-7.23-2.12-14.16-4.89-19.91-10a14.63,14.63,0,0,1-5.37-12c.19-6.07-.07-12.15.1-18.22.06-2.24-.57-3.32-2.77-4.1-6-2.13-11.77-4.82-16.15-9.74a13.19,13.19,0,0,1-3.63-9c0-11.38,0-22.76,0-34.15,0-4.49,2.26-7.93,5.58-10.74,6.37-5.41,14-8.16,21.91-10.35,1.84-.51,2.41-1.22,2.37-3-.11-4.74.28-9.52-.12-14.23-.66-7.84,3.13-13,9.32-16.88,7.83-4.94,16.59-7.38,25.52-9.25,24-5,48.17-5.65,72.46-3.25,14.06,1.39,28.07,3.51,41,9.67A52.27,52.27,0,0,1,447,86.64c2.75,2.35,3.72,5.77,3.69,9.5-.08,10.63-.15,21.26,0,31.89a15,15,0,0,1-5.57,12.19c-4.88,4.28-10.67,6.81-16.73,8.85C426,149.88,423.58,150.57,420.92,151.39Zm-60.08-40.7c21.06.33,35.89-.76,50.56-3.58,8.38-1.62,16.66-3.69,24.13-8,4.46-2.57,4.51-5.31,0-7.62a77.56,77.56,0,0,0-13.13-5.26c-18.72-5.53-38-6.72-57.37-6.45-17.76.25-35.38,1.81-52.35,7.5a61.34,61.34,0,0,0-11.27,5.24c-2.57,1.5-2.62,3.27-.3,4.89a40.34,40.34,0,0,0,9.08,5.07C328.5,109.16,347.7,110.24,360.84,110.69Zm-46.59,40.49c-5.91-2.79-12-5.4-17.77-8.49a16.31,16.31,0,0,1-8.34-10,37.89,37.89,0,0,1-.71-5.15c-5.66,1.59-11.13,3.08-15.76,6.53-2.67,2-2.84,3.59-.1,5.3a59.25,59.25,0,0,0,11.09,5.55C292.94,148.62,303.68,150.24,314.25,151.18Zm9.11,35.26H337.3V164.26H323.36Zm36.58,20.25h-14v22.12h14Zm-6.88-84.06c0,6.86,0,13.76.06,20.65a2,2,0,0,0,1.32,1.39c4.22.11,8.45.06,13,.06,0-6.86,0-13.58,0-20.3,0-1.63-.88-1.83-2.18-1.82C361.35,122.65,357.47,122.63,353.06,122.63Zm26.26,106.13V206.19c-3.9.17-7.57.43-11.24.45-1.78,0-2.26.72-2.23,2.37.07,5.68,0,11.35,0,17,0,1,.09,2,.13,2.73Zm7.4-106.12H373.35v22c4.1,0,8.06,0,12-.06a2,2,0,0,0,1.32-1.37C386.75,136.32,386.72,129.42,386.72,122.64Zm-43.19,64.27c4.21-.2,8.07-.31,11.91-.68.55,0,1.33-1.38,1.37-2.15.16-3.12.06-6.25.06-9.38V164.11H343.53Zm-26.3-1v-22.5l-10.54-1.08v22.35Zm56-1.4V162.17c-2.83.31-5.35.75-7.87.82-2,0-2.61.7-2.58,2.67.11,6.05,0,12.1,0,18.15a12.25,12.25,0,0,0,.36,2Zm-33.56,21.33c-3.13-.34-5.94-.74-8.76-.86a2.44,2.44,0,0,0-1.82,1.51c-.13,6.24-.11,12.48,0,18.73,0,.66.64,1.83,1.12,1.9,3.11.47,6.25.7,9.49,1Zm56.22,21V204.56l-10.41,1.21v22.38ZM336.3,120.76c0,4.46-.05,8.59,0,12.73.05,3.09-.92,7.35.69,8.95,1.82,1.8,6,1.2,9.18,1.62.16,0,.35-.09.83-.23,0-6.88,0-13.85,0-20.82a1.75,1.75,0,0,0-1.05-1.32C342.85,121.31,339.77,121.08,336.3,120.76Zm66.87,22V120.5l-10.36,1.21V144ZM391.83,193.3c10.35-1.43,20.09-3.35,29.44-6.87a46.45,46.45,0,0,0,8.35-4.16c2.66-1.67,2.7-3.89.09-5.66s-5.54-3.08-8.63-4.75c-1.39,7.21-6,11.32-11.59,14.12S398.05,190.76,391.83,193.3Zm-91.14-9.53c0-7.36,0-14.08-.06-20.8a2.3,2.3,0,0,0-1.36-1.69c-2.51-.64-5.09-1.05-7.85-1.57v22.15Zm118-65.94c-3.12.53-5.83.88-8.46,1.55-.51.12-1,1.47-1,2.26-.09,4.74-.05,9.48-.05,14.22v5.94c3.12-.65,5.71-1.11,8.24-1.81a2.35,2.35,0,0,0,1.22-1.82C418.69,131.55,418.65,124.93,418.65,117.83ZM402,225.9l9.07-2v-22c-2.79.51-5.31.9-7.78,1.48a2,2,0,0,0-1.24,1.44C402,211.74,402,218.63,402,225.9ZM330.31,119.76,321.14,118c0,7.13,0,13.94.05,20.75a2.12,2.12,0,0,0,1.19,1.56c2.54.65,5.13,1.11,7.93,1.68Zm49.15,63.78c2.67-.6,4.86-1.26,7.1-1.55,1.87-.24,2.27-1.16,2.25-2.84-.07-5.59,0-11.19,0-16.79,0-.89-.11-1.78-.18-2.86-2.78.49-5.23.81-7.6,1.41a2.52,2.52,0,0,0-1.48,1.85C379.41,169.58,379.46,176.4,379.46,183.54ZM323,226.05V203.87l-9.14-1.73c0,7.14,0,14,.06,20.77a2.05,2.05,0,0,0,1.2,1.52C317.69,225.07,320.27,225.5,323,226.05ZM308,222.22c0-5.79,0-11.54,0-17.29,0-4.78-.39-5.15-5.8-5.46v16.71C302.16,221.22,302.36,221.44,308,222.22Zm1.44-107.31c0,5.82.07,11.11,0,16.41-.09,5.66-.15,5.65,5.62,6.89V116.55Zm-29.75,41.73v17.48c0,4.62.74,5.33,5.81,5.53,0-6.62,0-13.24-.06-19.86a2.48,2.48,0,0,0-1.24-1.81A32.93,32.93,0,0,0,279.65,156.64ZM299.36,111c0,6,0,11.89,0,17.75,0,2.51,1.68,3.77,4.25,4.79,0-6.08-.2-11.82.07-17.54C303.85,112.91,302.62,111.52,299.36,111ZM296.3,217.77c0-6.22-.23-12.05.09-17.85.18-3.26-1.33-4.26-4.2-4.85,0,5.86.09,11.53,0,17.19C292.09,215.11,293.59,216.49,296.3,217.77Zm-26.72-65.1c0,6.25-.21,12.3.14,18.32.09,1.53,2,3,3,4.44l1-.51c0-5.84-.18-11.7.07-17.54C274,154.22,272.4,153.29,269.58,152.67Z"/><path class="cls-1" d="M244.37,373.16l113.48,67.2c-4.64,1-8.61,2.18-12.67,2.62-30.19,3.25-58.31-2.77-83.75-19.64-9.08-6-16.44-13.81-19.73-24.6C239,389.88,240.29,381.36,244.37,373.16Z"/><path class="cls-1" d="M346.52,330c5.66-1.06,10.52-2.41,15.45-2.82,26.16-2.18,50.76,3.09,73.39,16.52,9,5.34,16.74,12.13,21.36,21.87,4.73,10,3.93,19.74-.78,29.23Z"/></svg>